<svg xmlns="http://www.w3.org/2000/svg" xmlns:xlink="http://www.w3.org/1999/xlink" width="329" zoomAndPan="magnify" viewBox="0 0 246.75 48" height="64" preserveAspectRatio="xMidYMid meet" version="1.0"><defs><g/><clipPath id="d8f9dae4bd"><path d="M 2.394531 0 L 244.109375 0 L 244.109375 47.019531 L 2.394531 47.019531 Z M 2.394531 0 " clip-rule="nonzero"/></clipPath><clipPath id="5c12efcce5"><path d="M 59.28125 7.101562 L 87.421875 7.101562 L 87.421875 35.242188 L 59.28125 35.242188 Z M 59.28125 7.101562 " clip-rule="nonzero"/></clipPath><clipPath id="c73c5d19af"><path d="M 94.730469 18.59375 L 186.03125 18.59375 L 186.03125 39.320312 L 94.730469 39.320312 Z M 94.730469 18.59375 " clip-rule="nonzero"/></clipPath><clipPath id="9643154d9a"><path d="M 61.847656 25 L 70 25 L 70 32.484375 L 61.847656 32.484375 Z M 61.847656 25 " clip-rule="nonzero"/></clipPath><clipPath id="f3fe384613"><path d="M 61.847656 10 L 75 10 L 75 26 L 61.847656 26 Z M 61.847656 10 " clip-rule="nonzero"/></clipPath><clipPath id="3f370babcd"><path d="M 79 25 L 87.5625 25 L 87.5625 32.484375 L 79 32.484375 Z M 79 25 " clip-rule="nonzero"/></clipPath><clipPath id="37c3bff26e"><path d="M 70 9.710938 L 79 9.710938 L 79 18 L 70 18 Z M 70 9.710938 " clip-rule="nonzero"/></clipPath><clipPath id="37d2c5976a"><path d="M 65 25 L 84 25 L 84 32.484375 L 65 32.484375 Z M 65 25 " clip-rule="nonzero"/></clipPath><clipPath id="751d4aa82e"><path d="M 74 10 L 87.5625 10 L 87.5625 26 L 74 26 Z M 74 10 " clip-rule="nonzero"/></clipPath></defs><g clip-path="url(#d8f9dae4bd)"><path fill="#232323" d="M 6.070312 0 L 240.4375 0 C 240.921875 0 241.390625 0.09375 241.84375 0.28125 C 242.292969 0.464844 242.6875 0.730469 243.035156 1.074219 C 243.378906 1.421875 243.644531 1.816406 243.828125 2.269531 C 244.015625 2.71875 244.109375 3.1875 244.109375 3.671875 L 244.109375 43.347656 C 244.109375 43.835938 244.015625 44.300781 243.828125 44.753906 C 243.644531 45.203125 243.378906 45.601562 243.035156 45.945312 C 242.6875 46.289062 242.292969 46.554688 241.84375 46.742188 C 241.390625 46.925781 240.921875 47.019531 240.4375 47.019531 L 6.070312 47.019531 C 5.582031 47.019531 5.113281 46.925781 4.664062 46.742188 C 4.214844 46.554688 3.816406 46.289062 3.472656 45.945312 C 3.125 45.601562 2.863281 45.203125 2.675781 44.753906 C 2.488281 44.300781 2.394531 43.835938 2.394531 43.347656 L 2.394531 3.671875 C 2.394531 3.1875 2.488281 2.71875 2.675781 2.269531 C 2.863281 1.816406 3.125 1.421875 3.472656 1.074219 C 3.816406 0.730469 4.214844 0.464844 4.664062 0.28125 C 5.113281 0.09375 5.582031 0 6.070312 0 Z M 6.070312 0 " fill-opacity="1" fill-rule="nonzero"/></g><path fill="#ffffff" d="M 82.167969 22.289062 C 82.136719 18.882812 85.027344 17.226562 85.160156 17.148438 C 83.523438 14.820312 80.984375 14.5 80.09375 14.476562 C 77.960938 14.257812 75.890625 15.71875 74.804688 15.71875 C 73.699219 15.71875 72.023438 14.496094 70.222656 14.535156 C 67.902344 14.566406 65.730469 15.878906 64.542969 17.910156 C 62.085938 22.058594 63.917969 28.152344 66.269531 31.503906 C 67.449219 33.144531 68.824219 34.976562 70.625 34.914062 C 72.386719 34.839844 73.042969 33.816406 75.167969 33.816406 C 77.277344 33.816406 77.894531 34.914062 79.730469 34.871094 C 81.621094 34.839844 82.8125 33.222656 83.945312 31.566406 C 85.308594 29.683594 85.855469 27.832031 85.875 27.738281 C 85.832031 27.722656 82.203125 26.371094 82.167969 22.289062 Z M 82.167969 22.289062 " fill-opacity="1" fill-rule="nonzero"/><path fill="#ffffff" d="M 78.699219 12.269531 C 79.648438 11.117188 80.296875 9.542969 80.113281 7.949219 C 78.742188 8.007812 77.027344 8.875 76.042969 10.003906 C 75.167969 11 74.386719 12.632812 74.589844 14.167969 C 76.128906 14.277344 77.710938 13.410156 78.699219 12.269531 Z M 78.699219 12.269531 " fill-opacity="1" fill-rule="nonzero"/><path fill="#ffffff" d="M 107.660156 34.675781 L 105.199219 34.675781 L 103.851562 30.546875 L 99.164062 30.546875 L 97.878906 34.675781 L 95.480469 34.675781 L 100.125 20.613281 L 102.992188 20.613281 Z M 103.445312 28.8125 L 102.226562 25.140625 C 102.09375 24.765625 101.855469 23.878906 101.496094 22.488281 L 101.453125 22.488281 C 101.3125 23.089844 101.082031 23.972656 100.769531 25.140625 L 99.570312 28.8125 Z M 103.445312 28.8125 " fill-opacity="1" fill-rule="nonzero"/><path fill="#ffffff" d="M 119.605469 29.480469 C 119.605469 31.203125 119.125 32.570312 118.171875 33.570312 C 117.3125 34.460938 116.25 34.90625 114.980469 34.90625 C 113.609375 34.90625 112.625 34.425781 112.027344 33.464844 L 111.984375 33.464844 L 111.984375 38.808594 L 109.671875 38.808594 L 109.671875 27.871094 C 109.671875 26.789062 109.640625 25.675781 109.585938 24.535156 L 111.617188 24.535156 L 111.746094 26.140625 L 111.792969 26.140625 C 112.5625 24.929688 113.730469 24.324219 115.300781 24.324219 C 116.527344 24.324219 117.554688 24.796875 118.371094 25.742188 C 119.195312 26.691406 119.605469 27.9375 119.605469 29.480469 Z M 117.25 29.5625 C 117.25 28.574219 117.023438 27.761719 116.5625 27.121094 C 116.0625 26.453125 115.394531 26.117188 114.550781 26.117188 C 113.980469 26.117188 113.464844 26.304688 113 26.671875 C 112.535156 27.042969 112.234375 27.523438 112.089844 28.121094 C 112.019531 28.402344 111.984375 28.628906 111.984375 28.808594 L 111.984375 30.5 C 111.984375 31.238281 112.214844 31.859375 112.679688 32.371094 C 113.144531 32.878906 113.746094 33.132812 114.488281 33.132812 C 115.359375 33.132812 116.035156 32.804688 116.519531 32.152344 C 117.007812 31.496094 117.25 30.632812 117.25 29.5625 Z M 117.25 29.5625 " fill-opacity="1" fill-rule="nonzero"/><path fill="#ffffff" d="M 131.570312 29.480469 C 131.570312 31.203125 131.089844 32.570312 130.132812 33.570312 C 129.277344 34.460938 128.214844 34.90625 126.945312 34.90625 C 125.574219 34.90625 124.589844 34.425781 123.992188 33.464844 L 123.949219 33.464844 L 123.949219 38.808594 L 121.636719 38.808594 L 121.636719 27.871094 C 121.636719 26.789062 121.609375 25.675781 121.550781 24.535156 L 123.585938 24.535156 L 123.714844 26.140625 L 123.757812 26.140625 C 124.527344 24.929688 125.695312 24.324219 127.265625 24.324219 C 128.492188 24.324219 129.519531 24.796875 130.339844 25.742188 C 131.15625 26.691406 131.570312 27.9375 131.570312 29.480469 Z M 129.214844 29.5625 C 129.214844 28.574219 128.984375 27.761719 128.527344 27.121094 C 128.027344 26.453125 127.359375 26.117188 126.515625 26.117188 C 125.945312 26.117188 125.429688 26.304688 124.964844 26.671875 C 124.5 27.042969 124.199219 27.523438 124.054688 28.121094 C 123.984375 28.402344 123.949219 28.628906 123.949219 28.808594 L 123.949219 30.5 C 123.949219 31.238281 124.179688 31.859375 124.644531 32.371094 C 125.105469 32.878906 125.710938 33.132812 126.453125 33.132812 C 127.324219 33.132812 128 32.804688 128.484375 32.152344 C 128.972656 31.496094 129.214844 30.632812 129.214844 29.5625 Z M 129.214844 29.5625 " fill-opacity="1" fill-rule="nonzero"/><path fill="#ffffff" d="M 144.945312 30.730469 C 144.945312 31.929688 144.519531 32.902344 143.664062 33.652344 C 142.726562 34.476562 141.417969 34.886719 139.734375 34.886719 C 138.183594 34.886719 136.9375 34.59375 135.996094 34.007812 L 136.53125 32.128906 C 137.546875 32.730469 138.660156 33.027344 139.871094 33.027344 C 140.742188 33.027344 141.421875 32.835938 141.90625 32.453125 C 142.390625 32.070312 142.632812 31.558594 142.632812 30.917969 C 142.632812 30.347656 142.433594 29.867188 142.035156 29.476562 C 141.636719 29.085938 140.972656 28.722656 140.042969 28.386719 C 137.519531 27.46875 136.257812 26.125 136.257812 24.355469 C 136.257812 23.199219 136.699219 22.25 137.585938 21.511719 C 138.464844 20.773438 139.644531 20.40625 141.117188 20.40625 C 142.429688 20.40625 143.519531 20.628906 144.390625 21.074219 L 143.8125 22.910156 C 143 22.480469 142.078125 22.261719 141.050781 22.261719 C 140.238281 22.261719 139.601562 22.457031 139.148438 22.847656 C 138.761719 23.195312 138.570312 23.621094 138.570312 24.121094 C 138.570312 24.675781 138.789062 25.136719 139.230469 25.5 C 139.617188 25.832031 140.316406 26.195312 141.332031 26.582031 C 142.570312 27.070312 143.484375 27.640625 144.070312 28.292969 C 144.65625 28.945312 144.945312 29.761719 144.945312 30.730469 Z M 144.945312 30.730469 " fill-opacity="1" fill-rule="nonzero"/><path fill="#ffffff" d="M 152.585938 26.226562 L 150.039062 26.226562 L 150.039062 31.148438 C 150.039062 32.402344 150.488281 33.027344 151.386719 33.027344 C 151.800781 33.027344 152.144531 32.992188 152.414062 32.921875 L 152.480469 34.632812 C 152.023438 34.800781 151.421875 34.882812 150.679688 34.882812 C 149.769531 34.882812 149.054688 34.613281 148.539062 34.070312 C 148.027344 33.527344 147.769531 32.613281 147.769531 31.335938 L 147.769531 26.222656 L 146.253906 26.222656 L 146.253906 24.53125 L 147.769531 24.53125 L 147.769531 22.675781 L 150.039062 22.007812 L 150.039062 24.53125 L 152.585938 24.53125 Z M 152.585938 26.226562 " fill-opacity="1" fill-rule="nonzero"/><path fill="#ffffff" d="M 164.082031 29.523438 C 164.082031 31.082031 163.625 32.363281 162.710938 33.363281 C 161.753906 34.394531 160.484375 34.90625 158.898438 34.90625 C 157.375 34.90625 156.160156 34.414062 155.253906 33.425781 C 154.347656 32.4375 153.894531 31.191406 153.894531 29.691406 C 153.894531 28.121094 154.359375 26.832031 155.292969 25.832031 C 156.226562 24.828125 157.488281 24.328125 159.070312 24.328125 C 160.597656 24.328125 161.828125 24.820312 162.753906 25.808594 C 163.640625 26.769531 164.082031 28.007812 164.082031 29.523438 Z M 161.683594 29.597656 C 161.683594 28.660156 161.480469 27.859375 161.0625 27.1875 C 160.578125 26.378906 159.886719 25.976562 158.988281 25.976562 C 158.058594 25.976562 157.355469 26.378906 156.871094 27.1875 C 156.453125 27.859375 156.25 28.675781 156.25 29.636719 C 156.25 30.574219 156.453125 31.375 156.871094 32.042969 C 157.371094 32.851562 158.066406 33.257812 158.96875 33.257812 C 159.851562 33.257812 160.542969 32.84375 161.042969 32.023438 C 161.46875 31.339844 161.683594 30.53125 161.683594 29.597656 Z M 161.683594 29.597656 " fill-opacity="1" fill-rule="nonzero"/><path fill="#ffffff" d="M 171.59375 26.515625 C 171.367188 26.472656 171.121094 26.453125 170.863281 26.453125 C 170.050781 26.453125 169.421875 26.753906 168.980469 27.351562 C 168.597656 27.878906 168.402344 28.546875 168.402344 29.355469 L 168.402344 34.675781 L 166.09375 34.675781 L 166.117188 27.726562 C 166.117188 26.558594 166.085938 25.496094 166.027344 24.535156 L 168.042969 24.535156 L 168.125 26.476562 L 168.191406 26.476562 C 168.433594 25.808594 168.820312 25.269531 169.347656 24.867188 C 169.859375 24.507812 170.417969 24.324219 171.015625 24.324219 C 171.230469 24.324219 171.421875 24.339844 171.59375 24.367188 Z M 171.59375 26.515625 " fill-opacity="1" fill-rule="nonzero"/><path fill="#ffffff" d="M 181.929688 29.125 C 181.929688 29.527344 181.902344 29.867188 181.84375 30.144531 L 174.910156 30.144531 C 174.9375 31.148438 175.273438 31.914062 175.917969 32.441406 C 176.5 32.914062 177.257812 33.152344 178.1875 33.152344 C 179.210938 33.152344 180.148438 32.992188 180.992188 32.671875 L 181.351562 34.234375 C 180.367188 34.65625 179.207031 34.863281 177.867188 34.863281 C 176.253906 34.863281 174.988281 34.398438 174.066406 33.476562 C 173.144531 32.550781 172.683594 31.308594 172.683594 29.75 C 172.683594 28.222656 173.113281 26.949219 173.96875 25.933594 C 174.867188 24.847656 176.082031 24.304688 177.605469 24.304688 C 179.105469 24.304688 180.242188 24.847656 181.011719 25.933594 C 181.625 26.792969 181.929688 27.859375 181.929688 29.125 Z M 179.726562 28.539062 C 179.742188 27.871094 179.589844 27.292969 179.277344 26.808594 C 178.875 26.179688 178.261719 25.867188 177.433594 25.867188 C 176.679688 25.867188 176.066406 26.171875 175.597656 26.785156 C 175.210938 27.273438 174.980469 27.859375 174.910156 28.539062 Z M 179.726562 28.539062 " fill-opacity="1" fill-rule="nonzero"/><path fill="#ffffff" d="M 102.679688 11.957031 C 102.679688 13.199219 102.296875 14.136719 101.535156 14.765625 C 100.824219 15.34375 99.820312 15.636719 98.515625 15.636719 C 97.871094 15.636719 97.316406 15.609375 96.855469 15.554688 L 96.855469 8.757812 C 97.457031 8.660156 98.109375 8.613281 98.8125 8.613281 C 100.054688 8.613281 100.988281 8.875 101.621094 9.402344 C 102.328125 9.996094 102.679688 10.847656 102.679688 11.957031 Z M 101.484375 11.984375 C 101.484375 11.179688 101.265625 10.5625 100.824219 10.128906 C 100.386719 9.699219 99.75 9.484375 98.90625 9.484375 C 98.546875 9.484375 98.242188 9.507812 97.992188 9.554688 L 97.992188 14.722656 C 98.132812 14.746094 98.386719 14.753906 98.757812 14.753906 C 99.628906 14.753906 100.300781 14.519531 100.773438 14.046875 C 101.246094 13.574219 101.484375 12.890625 101.484375 11.984375 Z M 101.484375 11.984375 " fill-opacity="1" fill-rule="nonzero"/><path fill="#ffffff" d="M 109.03125 13.039062 C 109.03125 13.808594 108.808594 14.433594 108.359375 14.925781 C 107.886719 15.433594 107.265625 15.6875 106.488281 15.6875 C 105.738281 15.6875 105.140625 15.445312 104.695312 14.957031 C 104.25 14.472656 104.027344 13.859375 104.027344 13.125 C 104.027344 12.351562 104.253906 11.71875 104.714844 11.226562 C 105.175781 10.734375 105.792969 10.488281 106.570312 10.488281 C 107.320312 10.488281 107.925781 10.730469 108.382812 11.214844 C 108.8125 11.6875 109.03125 12.296875 109.03125 13.039062 Z M 107.855469 13.078125 C 107.855469 12.617188 107.753906 12.222656 107.550781 11.894531 C 107.308594 11.496094 106.972656 11.296875 106.53125 11.296875 C 106.074219 11.296875 105.726562 11.496094 105.488281 11.894531 C 105.285156 12.222656 105.183594 12.625 105.183594 13.097656 C 105.183594 13.558594 105.285156 13.949219 105.488281 14.28125 C 105.734375 14.675781 106.078125 14.875 106.519531 14.875 C 106.953125 14.875 107.292969 14.675781 107.539062 14.269531 C 107.75 13.933594 107.855469 13.535156 107.855469 13.078125 Z M 107.855469 13.078125 " fill-opacity="1" fill-rule="nonzero"/><path fill="#ffffff" d="M 117.546875 10.59375 L 115.949219 15.574219 L 114.910156 15.574219 L 114.246094 13.410156 C 114.078125 12.871094 113.941406 12.335938 113.835938 11.800781 L 113.816406 11.800781 C 113.714844 12.347656 113.578125 12.886719 113.402344 13.410156 L 112.699219 15.574219 L 111.648438 15.574219 L 110.144531 10.59375 L 111.3125 10.59375 L 111.890625 12.960938 C 112.03125 13.523438 112.144531 14.054688 112.238281 14.5625 L 112.257812 14.5625 C 112.339844 14.144531 112.480469 13.613281 112.679688 12.972656 L 113.402344 10.59375 L 114.328125 10.59375 L 115.023438 12.921875 C 115.191406 13.488281 115.328125 14.035156 115.433594 14.5625 L 115.464844 14.5625 C 115.542969 14.050781 115.660156 13.503906 115.8125 12.921875 L 116.433594 10.59375 Z M 117.546875 10.59375 " fill-opacity="1" fill-rule="nonzero"/><path fill="#ffffff" d="M 123.4375 15.574219 L 122.300781 15.574219 L 122.300781 12.71875 C 122.300781 11.839844 121.960938 11.402344 121.273438 11.402344 C 120.933594 11.402344 120.664062 11.519531 120.453125 11.761719 C 120.242188 12.003906 120.136719 12.289062 120.136719 12.617188 L 120.136719 15.574219 L 119 15.574219 L 119 12.015625 C 119 11.578125 118.984375 11.101562 118.960938 10.589844 L 119.957031 10.589844 L 120.011719 11.367188 L 120.042969 11.367188 C 120.175781 11.125 120.371094 10.925781 120.628906 10.765625 C 120.9375 10.582031 121.285156 10.488281 121.660156 10.488281 C 122.136719 10.488281 122.535156 10.636719 122.851562 10.9375 C 123.242188 11.308594 123.4375 11.859375 123.4375 12.589844 Z M 123.4375 15.574219 " fill-opacity="1" fill-rule="nonzero"/><path fill="#ffffff" d="M 125.4375 8.304688 L 126.570312 8.304688 L 126.570312 15.574219 L 125.4375 15.574219 Z M 125.4375 8.304688 " fill-opacity="1" fill-rule="nonzero"/><path fill="#ffffff" d="M 133.261719 13.039062 C 133.261719 13.808594 133.035156 14.433594 132.585938 14.925781 C 132.117188 15.433594 131.492188 15.6875 130.714844 15.6875 C 129.964844 15.6875 129.367188 15.445312 128.921875 14.957031 C 128.476562 14.472656 128.253906 13.859375 128.253906 13.125 C 128.253906 12.351562 128.484375 11.71875 128.945312 11.226562 C 129.402344 10.734375 130.019531 10.488281 130.796875 10.488281 C 131.550781 10.488281 132.152344 10.730469 132.609375 11.214844 C 133.042969 11.6875 133.261719 12.296875 133.261719 13.039062 Z M 132.082031 13.078125 C 132.082031 12.617188 131.976562 12.222656 131.777344 11.894531 C 131.539062 11.496094 131.199219 11.296875 130.757812 11.296875 C 130.300781 11.296875 129.953125 11.496094 129.714844 11.894531 C 129.511719 12.222656 129.410156 12.625 129.410156 13.097656 C 129.410156 13.558594 129.511719 13.949219 129.714844 14.28125 C 129.960938 14.675781 130.304688 14.875 130.746094 14.875 C 131.179688 14.875 131.519531 14.675781 131.765625 14.269531 C 131.976562 13.933594 132.082031 13.535156 132.082031 13.078125 Z M 132.082031 13.078125 " fill-opacity="1" fill-rule="nonzero"/><path fill="#ffffff" d="M 138.757812 15.574219 L 137.738281 15.574219 L 137.652344 15 L 137.621094 15 C 137.273438 15.457031 136.773438 15.6875 136.128906 15.6875 C 135.648438 15.6875 135.257812 15.535156 134.960938 15.234375 C 134.695312 14.960938 134.5625 14.625 134.5625 14.21875 C 134.5625 13.613281 134.824219 13.148438 135.347656 12.828125 C 135.871094 12.503906 136.605469 12.347656 137.550781 12.355469 L 137.550781 12.261719 C 137.550781 11.605469 137.195312 11.277344 136.488281 11.277344 C 135.984375 11.277344 135.539062 11.402344 135.15625 11.648438 L 134.925781 10.917969 C 135.402344 10.632812 135.988281 10.488281 136.679688 10.488281 C 138.015625 10.488281 138.683594 11.175781 138.683594 12.550781 L 138.683594 14.386719 C 138.683594 14.882812 138.710938 15.28125 138.757812 15.574219 Z M 137.578125 13.859375 L 137.578125 13.09375 C 136.324219 13.070312 135.699219 13.40625 135.699219 14.097656 C 135.699219 14.355469 135.769531 14.550781 135.917969 14.679688 C 136.0625 14.8125 136.25 14.875 136.472656 14.875 C 136.722656 14.875 136.953125 14.796875 137.167969 14.644531 C 137.378906 14.492188 137.511719 14.296875 137.558594 14.054688 C 137.574219 14 137.578125 13.9375 137.578125 13.859375 Z M 137.578125 13.859375 " fill-opacity="1" fill-rule="nonzero"/><path fill="#ffffff" d="M 145.210938 15.574219 L 144.203125 15.574219 L 144.152344 14.773438 L 144.121094 14.773438 C 143.796875 15.382812 143.25 15.6875 142.480469 15.6875 C 141.863281 15.6875 141.351562 15.453125 140.941406 14.980469 C 140.535156 14.507812 140.335938 13.898438 140.335938 13.144531 C 140.335938 12.339844 140.554688 11.6875 140.996094 11.1875 C 141.425781 10.722656 141.949219 10.488281 142.574219 10.488281 C 143.257812 10.488281 143.738281 10.714844 144.011719 11.164062 L 144.035156 11.164062 L 144.035156 8.304688 L 145.171875 8.304688 L 145.171875 14.230469 C 145.171875 14.71875 145.183594 15.164062 145.210938 15.574219 Z M 144.035156 13.472656 L 144.035156 12.640625 C 144.035156 12.5 144.023438 12.382812 144.003906 12.292969 C 143.941406 12.027344 143.800781 11.804688 143.59375 11.621094 C 143.382812 11.441406 143.125 11.351562 142.832031 11.351562 C 142.410156 11.351562 142.078125 11.515625 141.832031 11.84375 C 141.59375 12.171875 141.46875 12.589844 141.46875 13.105469 C 141.46875 13.597656 141.585938 13.996094 141.816406 14.304688 C 142.0625 14.632812 142.394531 14.796875 142.8125 14.796875 C 143.183594 14.796875 143.480469 14.660156 143.707031 14.386719 C 143.925781 14.132812 144.035156 13.828125 144.035156 13.472656 Z M 144.035156 13.472656 " fill-opacity="1" fill-rule="nonzero"/><path fill="#ffffff" d="M 154.929688 13.039062 C 154.929688 13.808594 154.707031 14.433594 154.257812 14.925781 C 153.785156 15.433594 153.164062 15.6875 152.386719 15.6875 C 151.636719 15.6875 151.039062 15.445312 150.59375 14.957031 C 150.148438 14.472656 149.925781 13.859375 149.925781 13.125 C 149.925781 12.351562 150.152344 11.71875 150.613281 11.226562 C 151.074219 10.734375 151.691406 10.488281 152.46875 10.488281 C 153.21875 10.488281 153.824219 10.730469 154.277344 11.214844 C 154.710938 11.6875 154.929688 12.296875 154.929688 13.039062 Z M 153.753906 13.078125 C 153.753906 12.617188 153.652344 12.222656 153.449219 11.894531 C 153.207031 11.496094 152.871094 11.296875 152.429688 11.296875 C 151.972656 11.296875 151.625 11.496094 151.386719 11.894531 C 151.183594 12.222656 151.082031 12.625 151.082031 13.097656 C 151.082031 13.558594 151.183594 13.949219 151.386719 14.28125 C 151.632812 14.675781 151.976562 14.875 152.417969 14.875 C 152.851562 14.875 153.191406 14.675781 153.4375 14.269531 C 153.648438 13.933594 153.753906 13.535156 153.753906 13.078125 Z M 153.753906 13.078125 " fill-opacity="1" fill-rule="nonzero"/><path fill="#ffffff" d="M 161.039062 15.574219 L 159.902344 15.574219 L 159.902344 12.71875 C 159.902344 11.839844 159.5625 11.402344 158.871094 11.402344 C 158.535156 11.402344 158.261719 11.519531 158.054688 11.761719 C 157.84375 12.003906 157.738281 12.289062 157.738281 12.617188 L 157.738281 15.574219 L 156.601562 15.574219 L 156.601562 12.015625 C 156.601562 11.578125 156.585938 11.101562 156.5625 10.589844 L 157.558594 10.589844 L 157.609375 11.367188 L 157.640625 11.367188 C 157.777344 11.125 157.972656 10.925781 158.230469 10.765625 C 158.539062 10.582031 158.882812 10.488281 159.261719 10.488281 C 159.738281 10.488281 160.136719 10.636719 160.449219 10.9375 C 160.84375 11.308594 161.039062 11.859375 161.039062 12.589844 Z M 161.039062 15.574219 " fill-opacity="1" fill-rule="nonzero"/><path fill="#ffffff" d="M 168.683594 11.421875 L 167.433594 11.421875 L 167.433594 13.839844 C 167.433594 14.457031 167.65625 14.765625 168.097656 14.765625 C 168.300781 14.765625 168.46875 14.746094 168.601562 14.710938 L 168.632812 15.550781 C 168.40625 15.632812 168.113281 15.675781 167.75 15.675781 C 167.300781 15.675781 166.949219 15.542969 166.699219 15.277344 C 166.445312 15.011719 166.320312 14.5625 166.320312 13.933594 L 166.320312 11.421875 L 165.574219 11.421875 L 165.574219 10.589844 L 166.320312 10.589844 L 166.320312 9.679688 L 167.433594 9.351562 L 167.433594 10.589844 L 168.683594 10.589844 Z M 168.683594 11.421875 " fill-opacity="1" fill-rule="nonzero"/><path fill="#ffffff" d="M 174.699219 15.574219 L 173.5625 15.574219 L 173.5625 12.742188 C 173.5625 11.847656 173.21875 11.402344 172.53125 11.402344 C 172.003906 11.402344 171.644531 11.660156 171.449219 12.179688 C 171.414062 12.285156 171.394531 12.421875 171.394531 12.578125 L 171.394531 15.574219 L 170.257812 15.574219 L 170.257812 8.304688 L 171.394531 8.304688 L 171.394531 11.308594 L 171.417969 11.308594 C 171.773438 10.761719 172.289062 10.488281 172.953125 10.488281 C 173.421875 10.488281 173.8125 10.640625 174.121094 10.941406 C 174.503906 11.316406 174.699219 11.875 174.699219 12.613281 Z M 174.699219 15.574219 " fill-opacity="1" fill-rule="nonzero"/><path fill="#ffffff" d="M 180.902344 12.847656 C 180.902344 13.046875 180.886719 13.214844 180.859375 13.347656 L 177.453125 13.347656 C 177.46875 13.84375 177.632812 14.21875 177.945312 14.476562 C 178.234375 14.710938 178.605469 14.824219 179.0625 14.824219 C 179.566406 14.824219 180.027344 14.746094 180.441406 14.589844 L 180.617188 15.359375 C 180.132812 15.566406 179.5625 15.667969 178.902344 15.667969 C 178.113281 15.667969 177.488281 15.441406 177.039062 14.984375 C 176.585938 14.53125 176.359375 13.921875 176.359375 13.15625 C 176.359375 12.40625 176.570312 11.777344 176.992188 11.28125 C 177.429688 10.746094 178.027344 10.480469 178.777344 10.480469 C 179.511719 10.480469 180.070312 10.746094 180.449219 11.28125 C 180.753906 11.703125 180.902344 12.226562 180.902344 12.847656 Z M 179.820312 12.5625 C 179.828125 12.230469 179.753906 11.949219 179.597656 11.710938 C 179.402344 11.402344 179.101562 11.25 178.695312 11.25 C 178.324219 11.25 178.023438 11.398438 177.792969 11.699219 C 177.601562 11.9375 177.492188 12.226562 177.453125 12.5625 Z M 179.820312 12.5625 " fill-opacity="1" fill-rule="nonzero"/><g clip-path="url(#5c12efcce5)"><path fill="#232323" d="M 59.28125 7.101562 L 87.421875 7.101562 L 87.421875 35.242188 L 59.28125 35.242188 Z M 59.28125 7.101562 " fill-opacity="1" fill-rule="nonzero"/></g><g clip-path="url(#c73c5d19af)"><path fill="#232323" d="M 94.730469 18.59375 L 186.042969 18.59375 L 186.042969 39.320312 L 94.730469 39.320312 Z M 94.730469 18.59375 " fill-opacity="1" fill-rule="nonzero"/></g><g clip-path="url(#9643154d9a)"><path fill="#0066da" d="M 63.792969 29.203125 L 64.925781 31.140625 C 65.160156 31.546875 65.5 31.867188 65.898438 32.101562 L 69.949219 25.171875 L 61.847656 25.171875 C 61.847656 25.625 61.964844 26.074219 62.199219 26.480469 Z M 63.792969 29.203125 " fill-opacity="1" fill-rule="nonzero"/></g><g clip-path="url(#f3fe384613)"><path fill="#00ac47" d="M 74.703125 17.023438 L 70.65625 10.09375 C 70.257812 10.328125 69.917969 10.648438 69.683594 11.054688 L 62.199219 23.863281 C 61.964844 24.269531 61.847656 24.703125 61.847656 25.171875 L 69.949219 25.171875 Z M 74.703125 17.023438 " fill-opacity="1" fill-rule="nonzero"/></g><g clip-path="url(#3f370babcd)"><path fill="#ea4335" d="M 83.511719 32.101562 C 83.910156 31.867188 84.25 31.546875 84.484375 31.140625 L 84.957031 30.339844 L 87.207031 26.480469 C 87.445312 26.074219 87.5625 25.625 87.5625 25.171875 L 79.460938 25.171875 L 81.183594 28.519531 Z M 83.511719 32.101562 " fill-opacity="1" fill-rule="nonzero"/></g><g clip-path="url(#37c3bff26e)"><path fill="#00832d" d="M 74.703125 17.023438 L 78.753906 10.09375 C 78.355469 9.863281 77.902344 9.746094 77.429688 9.746094 L 71.980469 9.746094 C 71.507812 9.746094 71.050781 9.875 70.65625 10.09375 Z M 74.703125 17.023438 " fill-opacity="1" fill-rule="nonzero"/></g><g clip-path="url(#37d2c5976a)"><path fill="#2684fc" d="M 79.460938 25.171875 L 69.949219 25.171875 L 65.898438 32.101562 C 66.296875 32.332031 66.75 32.449219 67.222656 32.449219 L 82.1875 32.449219 C 82.65625 32.449219 83.113281 32.320312 83.511719 32.101562 Z M 79.460938 25.171875 " fill-opacity="1" fill-rule="nonzero"/></g><g clip-path="url(#751d4aa82e)"><path fill="#ffba00" d="M 83.46875 17.457031 L 79.726562 11.054688 C 79.492188 10.648438 79.152344 10.328125 78.753906 10.09375 L 74.703125 17.023438 L 79.460938 25.171875 L 87.546875 25.171875 C 87.546875 24.722656 87.429688 24.269531 87.195312 23.863281 Z M 83.46875 17.457031 " fill-opacity="1" fill-rule="nonzero"/></g><g fill="#ffffff" fill-opacity="1"><g transform="translate(96.049472, 33.732902)"><g><path d="M 9.9375 -5.65625 L 5.578125 -5.65625 L 5.578125 -3.828125 L 8.0625 -3.828125 C 7.84375 -2.3125 6.796875 -1.546875 5.515625 -1.546875 C 3.703125 -1.546875 2.6875 -3.03125 2.6875 -5.234375 C 2.6875 -7.375 3.6875 -8.828125 5.515625 -8.828125 C 6.78125 -8.828125 7.546875 -8.125 7.734375 -7.015625 L 9.875 -7.15625 C 9.515625 -9.359375 7.96875 -10.703125 5.390625 -10.703125 C 2.59375 -10.703125 0.515625 -8.625 0.515625 -5.234375 C 0.515625 -1.84375 2.625 0.34375 5.265625 0.34375 C 6.671875 0.34375 7.671875 -0.28125 8.203125 -1.109375 L 8.53125 0 L 9.9375 0 Z M 9.9375 -5.65625 "/></g></g></g><g fill="#ffffff" fill-opacity="1"><g transform="translate(106.943874, 33.732902)"><g><path d="M 4.34375 0.25 C 6.625 0.25 8.21875 -1.46875 8.21875 -3.765625 C 8.21875 -6.046875 6.625 -7.765625 4.34375 -7.765625 C 2.078125 -7.765625 0.46875 -6.046875 0.46875 -3.765625 C 0.46875 -1.46875 2.078125 0.25 4.34375 0.25 Z M 4.34375 -1.359375 C 3.1875 -1.359375 2.46875 -2.3125 2.46875 -3.765625 C 2.46875 -5.21875 3.1875 -6.15625 4.34375 -6.15625 C 5.515625 -6.15625 6.234375 -5.21875 6.234375 -3.765625 C 6.234375 -2.3125 5.515625 -1.359375 4.34375 -1.359375 Z M 4.34375 -1.359375 "/></g></g></g><g fill="#ffffff" fill-opacity="1"><g transform="translate(115.635897, 33.732902)"><g><path d="M 4.34375 0.25 C 6.625 0.25 8.21875 -1.46875 8.21875 -3.765625 C 8.21875 -6.046875 6.625 -7.765625 4.34375 -7.765625 C 2.078125 -7.765625 0.46875 -6.046875 0.46875 -3.765625 C 0.46875 -1.46875 2.078125 0.25 4.34375 0.25 Z M 4.34375 -1.359375 C 3.1875 -1.359375 2.46875 -2.3125 2.46875 -3.765625 C 2.46875 -5.21875 3.1875 -6.15625 4.34375 -6.15625 C 5.515625 -6.15625 6.234375 -5.21875 6.234375 -3.765625 C 6.234375 -2.3125 5.515625 -1.359375 4.34375 -1.359375 Z M 4.34375 -1.359375 "/></g></g></g><g fill="#ffffff" fill-opacity="1"><g transform="translate(124.327921, 33.732902)"><g><path d="M 5.9375 -6.640625 C 5.4375 -7.390625 4.6875 -7.765625 3.71875 -7.765625 C 1.84375 -7.765625 0.46875 -6.34375 0.46875 -3.9375 C 0.46875 -1.59375 1.828125 0 3.71875 0 C 4.5625 0 5.265625 -0.3125 5.765625 -0.921875 L 5.765625 0.125 C 5.765625 1.078125 5.390625 1.625 4.1875 1.625 C 3.296875 1.625 2.78125 1.328125 2.65625 0.609375 L 0.75 0.609375 C 0.890625 2.203125 2.0625 3.171875 4.234375 3.171875 C 6.5 3.171875 7.84375 2.078125 7.84375 0.09375 L 7.84375 -7.578125 L 6 -7.578125 Z M 4.171875 -1.765625 C 3.171875 -1.765625 2.46875 -2.578125 2.46875 -3.9375 C 2.46875 -5.265625 3.171875 -6.109375 4.171875 -6.109375 C 5.171875 -6.109375 5.875 -5.265625 5.875 -3.9375 C 5.875 -2.609375 5.171875 -1.765625 4.171875 -1.765625 Z M 4.171875 -1.765625 "/></g></g></g><g fill="#ffffff" fill-opacity="1"><g transform="translate(133.049317, 33.732902)"><g><path d="M 2.953125 0 L 2.953125 -10.453125 L 0.875 -10.453125 L 0.875 0 Z M 2.953125 0 "/></g></g></g><g fill="#ffffff" fill-opacity="1"><g transform="translate(136.881449, 33.732902)"><g><path d="M 8.09375 -3.53125 C 8.09375 -6.1875 6.453125 -7.765625 4.203125 -7.765625 C 1.875 -7.765625 0.46875 -6.03125 0.46875 -3.8125 C 0.46875 -1.5 1.90625 0.25 4.421875 0.25 C 6.125 0.25 7.390625 -0.546875 7.90625 -2.1875 L 5.84375 -2.328125 C 5.59375 -1.671875 5.09375 -1.34375 4.375 -1.34375 C 3.34375 -1.34375 2.6875 -2.03125 2.59375 -3.171875 L 8.09375 -3.171875 Z M 4.28125 -6.25 C 5.21875 -6.25 5.828125 -5.640625 5.953125 -4.578125 L 2.578125 -4.578125 C 2.6875 -5.625 3.328125 -6.25 4.28125 -6.25 Z M 4.28125 -6.25 "/></g></g></g><g fill="#ffffff" fill-opacity="1"><g transform="translate(145.441334, 33.732902)"><g/></g></g><g fill="#ffffff" fill-opacity="1"><g transform="translate(149.111956, 33.732902)"><g><path d="M 4.359375 -10.453125 L 0.953125 -10.453125 L 0.953125 0 L 4.65625 0 C 8.203125 0 9.765625 -2.171875 9.765625 -5.296875 C 9.765625 -8.4375 8.28125 -10.453125 4.359375 -10.453125 Z M 3.125 -1.84375 L 3.125 -8.6875 L 4.15625 -8.6875 C 6.828125 -8.6875 7.59375 -7.484375 7.59375 -5.234375 C 7.59375 -2.953125 6.75 -1.84375 4.453125 -1.84375 Z M 3.125 -1.84375 "/></g></g></g><g fill="#ffffff" fill-opacity="1"><g transform="translate(159.345641, 33.732902)"><g><path d="M 4.671875 -7.78125 C 3.828125 -7.78125 3.21875 -7.34375 2.875 -6.53125 L 2.90625 -7.578125 L 0.875 -7.578125 L 0.875 0 L 2.953125 0 L 2.953125 -3.6875 C 2.953125 -5.15625 3.5625 -5.875 4.828125 -5.875 C 4.984375 -5.875 5.109375 -5.859375 5.265625 -5.84375 L 5.265625 -7.71875 C 5.046875 -7.765625 4.84375 -7.78125 4.671875 -7.78125 Z M 4.671875 -7.78125 "/></g></g></g><g fill="#ffffff" fill-opacity="1"><g transform="translate(164.89562, 33.732902)"><g><path d="M 2.96875 -8.578125 L 2.96875 -10.453125 L 0.890625 -10.453125 L 0.890625 -8.578125 Z M 2.953125 0 L 2.953125 -7.578125 L 0.875 -7.578125 L 0.875 0 Z M 2.953125 0 "/></g></g></g><g fill="#ffffff" fill-opacity="1"><g transform="translate(168.727752, 33.732902)"><g><path d="M 4.546875 -5.296875 L 3.8125 -2 L 3.046875 -5.296875 L 2.40625 -7.578125 L 0.21875 -7.578125 L 2.71875 0 L 4.828125 0 L 7.328125 -7.578125 L 5.25 -7.578125 Z M 4.546875 -5.296875 "/></g></g></g><g fill="#ffffff" fill-opacity="1"><g transform="translate(176.127672, 33.732902)"><g><path d="M 8.09375 -3.53125 C 8.09375 -6.1875 6.453125 -7.765625 4.203125 -7.765625 C 1.875 -7.765625 0.46875 -6.03125 0.46875 -3.8125 C 0.46875 -1.5 1.90625 0.25 4.421875 0.25 C 6.125 0.25 7.390625 -0.546875 7.90625 -2.1875 L 5.84375 -2.328125 C 5.59375 -1.671875 5.09375 -1.34375 4.375 -1.34375 C 3.34375 -1.34375 2.6875 -2.03125 2.59375 -3.171875 L 8.09375 -3.171875 Z M 4.28125 -6.25 C 5.21875 -6.25 5.828125 -5.640625 5.953125 -4.578125 L 2.578125 -4.578125 C 2.6875 -5.625 3.328125 -6.25 4.28125 -6.25 Z M 4.28125 -6.25 "/></g></g></g></svg>